<svg xmlns="http://www.w3.org/2000/svg" viewBox="0 0 80 88" role="img" aria-labelledby="title">
  <title id="title">EaseFin AI emblem</title>
  <defs>
    <linearGradient id="sky" x1="0" y1="0" x2="0" y2="1">
      <stop offset="0" stop-color="#9edcf4"/>
      <stop offset="1" stop-color="#4eb7dd"/>
    </linearGradient>
  </defs>
  <circle cx="40" cy="43" r="31" fill="url(#sky)"/>
  <path d="M40 1.5l2.6 6.1 6.6.5-5 4.3 1.5 6.4-5.7-3.4-5.7 3.4 1.5-6.4-5-4.3 6.6-.5z" fill="#f1962a"/>
  <path d="M21.3 28.5c-7.5 4.2-11.8 12-11.2 20.3.5 7.5 4.7 14.7 11.8 20.3 1.6 1.3 4 .9 5.2-.8 1.1-1.6.8-3.8-.8-5.1-4.6-3.8-7.3-8.3-7.7-13.4-.4-4.8 1.7-9.5 5.8-12.5 1.7-1.2 2.1-3.6.9-5.3-1-1.6-2.7-2.3-4-3.5z" fill="#7a6b3d"/>
  <path d="M58.7 28.5c7.5 4.2 11.8 12 11.2 20.3-.5 7.5-4.7 14.7-11.8 20.3-1.6 1.3-4 .9-5.2-.8-1.1-1.6-.8-3.8.8-5.1 4.6-3.8 7.3-8.3 7.7-13.4.4-4.8-1.7-9.5-5.8-12.5-1.7-1.2-2.1-3.6-.9-5.3 1-1.6 2.7-2.3 4-3.5z" fill="#d3631e"/>
  <path d="M28.2 35.5c-5.4 3.8-7.7 9.6-6.2 15.6 1.2 5 4.8 9.6 10.8 13.8V48.3c0-4.5-1.5-8.8-4.6-12.8z" fill="#978d41"/>
  <path d="M51.8 35.5c5.4 3.8 7.7 9.6 6.2 15.6-1.2 5-4.8 9.6-10.8 13.8V48.3c0-4.5 1.5-8.8 4.6-12.8z" fill="#e2883b"/>
  <path d="M40 30c-6.4 6.9-9.7 13.9-9.7 20.7 0 7.8 3.2 15.8 9.7 24 6.5-8.2 9.7-16.2 9.7-24 0-6.8-3.3-13.8-9.7-20.7z" fill="#f0c590"/>
  <path d="M26.6 57.7c-5.7-1.8-10.4-.5-14.1 3.8 5.8 2.2 10.6 1 14.4-3.6z" fill="#344519"/>
  <path d="M30.3 66.2c-5.9-.8-10.3 1.4-13.2 6.4 6.1 1.1 10.7-.9 13.8-6.2z" fill="#7a6b3d"/>
  <path d="M53.4 57.7c5.7-1.8 10.4-.5 14.1 3.8-5.8 2.2-10.6 1-14.4-3.6z" fill="#f1962a"/>
  <path d="M49.7 66.2c5.9-.8 10.3 1.4 13.2 6.4-6.1 1.1-10.7-.9-13.8-6.2z" fill="#d3631e"/>
</svg>
